<mxfile host="app.diagrams.net" agent="Mozilla/5.0 (Windows NT 10.0; Win64; x64) AppleWebKit/537.36 (KHTML, like Gecko) Chrome/109.0.0.0 Safari/537.36" version="26.1.1">
  <diagram name="PÃ¡gina-1" id="NhjsWCOLcKTTgt6lgvUG">
    <mxGraphModel dx="880" dy="1663" grid="1" gridSize="10" guides="1" tooltips="1" connect="1" arrows="1" fold="1" page="1" pageScale="1" pageWidth="827" pageHeight="1169" background="light-dark(#ffffff, #121212)" math="0" shadow="0">
      <root>
        <mxCell id="0" />
        <mxCell id="1" parent="0" />
        <mxCell id="T3eqJL2sRI7vrFtihC8I-16" style="edgeStyle=orthogonalEdgeStyle;rounded=0;orthogonalLoop=1;jettySize=auto;html=1;exitX=1;exitY=0.3333333333333333;exitDx=0;exitDy=0;exitPerimeter=0;entryX=0;entryY=0.5;entryDx=0;entryDy=0;" edge="1" parent="1" source="T3eqJL2sRI7vrFtihC8I-9" target="T3eqJL2sRI7vrFtihC8I-13">
          <mxGeometry relative="1" as="geometry" />
        </mxCell>
        <mxCell id="T3eqJL2sRI7vrFtihC8I-20" style="edgeStyle=orthogonalEdgeStyle;rounded=0;orthogonalLoop=1;jettySize=auto;html=1;exitX=1;exitY=0.3333333333333333;exitDx=0;exitDy=0;exitPerimeter=0;entryX=0;entryY=0.5;entryDx=0;entryDy=0;" edge="1" parent="1" source="T3eqJL2sRI7vrFtihC8I-9" target="T3eqJL2sRI7vrFtihC8I-14">
          <mxGeometry relative="1" as="geometry" />
        </mxCell>
        <mxCell id="T3eqJL2sRI7vrFtihC8I-9" value="atendente" style="shape=umlActor;verticalLabelPosition=bottom;verticalAlign=top;html=1;" vertex="1" parent="1">
          <mxGeometry x="90" y="50" width="30" height="60" as="geometry" />
        </mxCell>
        <mxCell id="T3eqJL2sRI7vrFtihC8I-21" style="edgeStyle=orthogonalEdgeStyle;rounded=0;orthogonalLoop=1;jettySize=auto;html=1;exitX=1;exitY=0.3333333333333333;exitDx=0;exitDy=0;exitPerimeter=0;entryX=0;entryY=0.5;entryDx=0;entryDy=0;" edge="1" parent="1" source="T3eqJL2sRI7vrFtihC8I-10" target="T3eqJL2sRI7vrFtihC8I-14">
          <mxGeometry relative="1" as="geometry" />
        </mxCell>
        <mxCell id="T3eqJL2sRI7vrFtihC8I-10" value="estoquista" style="shape=umlActor;verticalLabelPosition=bottom;verticalAlign=top;html=1;" vertex="1" parent="1">
          <mxGeometry x="90" y="340" width="30" height="60" as="geometry" />
        </mxCell>
        <mxCell id="T3eqJL2sRI7vrFtihC8I-19" style="edgeStyle=orthogonalEdgeStyle;rounded=0;orthogonalLoop=1;jettySize=auto;html=1;exitX=0;exitY=0.3333333333333333;exitDx=0;exitDy=0;exitPerimeter=0;entryX=1;entryY=0.5;entryDx=0;entryDy=0;" edge="1" parent="1" source="T3eqJL2sRI7vrFtihC8I-11" target="T3eqJL2sRI7vrFtihC8I-17">
          <mxGeometry relative="1" as="geometry" />
        </mxCell>
        <mxCell id="T3eqJL2sRI7vrFtihC8I-22" style="edgeStyle=orthogonalEdgeStyle;rounded=0;orthogonalLoop=1;jettySize=auto;html=1;exitX=0;exitY=0.3333333333333333;exitDx=0;exitDy=0;exitPerimeter=0;entryX=1;entryY=0.5;entryDx=0;entryDy=0;" edge="1" parent="1" source="T3eqJL2sRI7vrFtihC8I-11" target="T3eqJL2sRI7vrFtihC8I-13">
          <mxGeometry relative="1" as="geometry" />
        </mxCell>
        <mxCell id="T3eqJL2sRI7vrFtihC8I-23" style="edgeStyle=orthogonalEdgeStyle;rounded=0;orthogonalLoop=1;jettySize=auto;html=1;exitX=0;exitY=0.3333333333333333;exitDx=0;exitDy=0;exitPerimeter=0;entryX=1;entryY=0.5;entryDx=0;entryDy=0;" edge="1" parent="1" source="T3eqJL2sRI7vrFtihC8I-11" target="T3eqJL2sRI7vrFtihC8I-14">
          <mxGeometry relative="1" as="geometry" />
        </mxCell>
        <mxCell id="T3eqJL2sRI7vrFtihC8I-11" value="gerente" style="shape=umlActor;verticalLabelPosition=bottom;verticalAlign=top;html=1;" vertex="1" parent="1">
          <mxGeometry x="560" y="185" width="30" height="60" as="geometry" />
        </mxCell>
        <mxCell id="T3eqJL2sRI7vrFtihC8I-33" style="edgeStyle=orthogonalEdgeStyle;rounded=0;orthogonalLoop=1;jettySize=auto;html=1;exitX=1;exitY=1;exitDx=0;exitDy=0;entryX=0.5;entryY=0;entryDx=0;entryDy=0;" edge="1" parent="1" source="T3eqJL2sRI7vrFtihC8I-13" target="T3eqJL2sRI7vrFtihC8I-17">
          <mxGeometry relative="1" as="geometry">
            <Array as="points">
              <mxPoint x="410" y="160" />
              <mxPoint x="360" y="160" />
            </Array>
          </mxGeometry>
        </mxCell>
        <mxCell id="T3eqJL2sRI7vrFtihC8I-13" value="vendas" style="ellipse;whiteSpace=wrap;html=1;" vertex="1" parent="1">
          <mxGeometry x="290" y="30" width="140" height="70" as="geometry" />
        </mxCell>
        <mxCell id="T3eqJL2sRI7vrFtihC8I-32" style="edgeStyle=orthogonalEdgeStyle;rounded=0;orthogonalLoop=1;jettySize=auto;html=1;exitX=0.5;exitY=0;exitDx=0;exitDy=0;entryX=0.5;entryY=1;entryDx=0;entryDy=0;" edge="1" parent="1" source="T3eqJL2sRI7vrFtihC8I-14" target="T3eqJL2sRI7vrFtihC8I-13">
          <mxGeometry relative="1" as="geometry">
            <Array as="points">
              <mxPoint x="360" y="290" />
              <mxPoint x="270" y="290" />
              <mxPoint x="270" y="140" />
              <mxPoint x="360" y="140" />
            </Array>
          </mxGeometry>
        </mxCell>
        <mxCell id="T3eqJL2sRI7vrFtihC8I-14" value="estoque" style="ellipse;whiteSpace=wrap;html=1;" vertex="1" parent="1">
          <mxGeometry x="290" y="335" width="140" height="70" as="geometry" />
        </mxCell>
        <mxCell id="T3eqJL2sRI7vrFtihC8I-17" value="registro" style="ellipse;whiteSpace=wrap;html=1;" vertex="1" parent="1">
          <mxGeometry x="290" y="185" width="140" height="70" as="geometry" />
        </mxCell>
        <mxCell id="T3eqJL2sRI7vrFtihC8I-25" value="" style="ellipse;shape=doubleEllipse;whiteSpace=wrap;html=1;fillStyle=solid;gradientColor=none;fillColor=default;" vertex="1" parent="1">
          <mxGeometry x="160" y="120" width="90" height="50" as="geometry" />
        </mxCell>
        <mxCell id="T3eqJL2sRI7vrFtihC8I-24" value="" style="shape=waypoint;whiteSpace=wrap;html=1;sketch=0;fillStyle=solid;size=6;pointerEvents=1;points=[];fillColor=none;resizable=0;rotatable=0;perimeter=centerPerimeter;snapToPoint=1;strokeWidth=8;" vertex="1" parent="1">
          <mxGeometry x="170" y="127.5" width="70" height="35" as="geometry" />
        </mxCell>
        <mxCell id="T3eqJL2sRI7vrFtihC8I-37" value="cadastrar cliente" style="ellipse;whiteSpace=wrap;html=1;" vertex="1" parent="1">
          <mxGeometry x="930" y="127.5" width="140" height="70" as="geometry" />
        </mxCell>
        <mxCell id="T3eqJL2sRI7vrFtihC8I-42" style="edgeStyle=orthogonalEdgeStyle;rounded=0;orthogonalLoop=1;jettySize=auto;html=1;exitX=1;exitY=0.3333333333333333;exitDx=0;exitDy=0;exitPerimeter=0;entryX=0;entryY=0.5;entryDx=0;entryDy=0;" edge="1" parent="1" source="T3eqJL2sRI7vrFtihC8I-41" target="T3eqJL2sRI7vrFtihC8I-37">
          <mxGeometry relative="1" as="geometry" />
        </mxCell>
        <mxCell id="T3eqJL2sRI7vrFtihC8I-48" style="edgeStyle=orthogonalEdgeStyle;rounded=0;orthogonalLoop=1;jettySize=auto;html=1;exitX=1;exitY=0.3333333333333333;exitDx=0;exitDy=0;exitPerimeter=0;entryX=0;entryY=0.5;entryDx=0;entryDy=0;" edge="1" parent="1" source="T3eqJL2sRI7vrFtihC8I-41" target="T3eqJL2sRI7vrFtihC8I-45">
          <mxGeometry relative="1" as="geometry" />
        </mxCell>
        <mxCell id="T3eqJL2sRI7vrFtihC8I-51" style="edgeStyle=orthogonalEdgeStyle;rounded=0;orthogonalLoop=1;jettySize=auto;html=1;exitX=1;exitY=0.3333333333333333;exitDx=0;exitDy=0;exitPerimeter=0;entryX=0;entryY=0.5;entryDx=0;entryDy=0;" edge="1" parent="1" source="T3eqJL2sRI7vrFtihC8I-41" target="T3eqJL2sRI7vrFtihC8I-49">
          <mxGeometry relative="1" as="geometry" />
        </mxCell>
        <mxCell id="T3eqJL2sRI7vrFtihC8I-41" value="atendente" style="shape=umlActor;verticalLabelPosition=bottom;verticalAlign=top;html=1;" vertex="1" parent="1">
          <mxGeometry x="797" y="50" width="30" height="60" as="geometry" />
        </mxCell>
        <mxCell id="T3eqJL2sRI7vrFtihC8I-45" value="emprestar livros" style="ellipse;whiteSpace=wrap;html=1;" vertex="1" parent="1">
          <mxGeometry x="930" y="40" width="140" height="70" as="geometry" />
        </mxCell>
        <mxCell id="T3eqJL2sRI7vrFtihC8I-49" value="devolver livros" style="ellipse;whiteSpace=wrap;html=1;" vertex="1" parent="1">
          <mxGeometry x="930" y="-50" width="140" height="70" as="geometry" />
        </mxCell>
        <mxCell id="T3eqJL2sRI7vrFtihC8I-52" value="leitor" style="shape=umlActor;verticalLabelPosition=bottom;verticalAlign=top;html=1;" vertex="1" parent="1">
          <mxGeometry x="700" y="50" width="30" height="60" as="geometry" />
        </mxCell>
        <mxCell id="T3eqJL2sRI7vrFtihC8I-53" style="edgeStyle=orthogonalEdgeStyle;rounded=0;orthogonalLoop=1;jettySize=auto;html=1;exitX=1;exitY=0.3333333333333333;exitDx=0;exitDy=0;exitPerimeter=0;entryX=0;entryY=0.3333333333333333;entryDx=0;entryDy=0;entryPerimeter=0;" edge="1" parent="1" source="T3eqJL2sRI7vrFtihC8I-52" target="T3eqJL2sRI7vrFtihC8I-41">
          <mxGeometry relative="1" as="geometry" />
        </mxCell>
        <mxCell id="T3eqJL2sRI7vrFtihC8I-65" style="edgeStyle=orthogonalEdgeStyle;rounded=0;orthogonalLoop=1;jettySize=auto;html=1;exitX=1;exitY=0.3333333333333333;exitDx=0;exitDy=0;exitPerimeter=0;entryX=0;entryY=0.5;entryDx=0;entryDy=0;" edge="1" parent="1" source="T3eqJL2sRI7vrFtihC8I-54" target="T3eqJL2sRI7vrFtihC8I-56">
          <mxGeometry relative="1" as="geometry" />
        </mxCell>
        <mxCell id="T3eqJL2sRI7vrFtihC8I-54" value="gerente" style="shape=umlActor;verticalLabelPosition=bottom;verticalAlign=top;html=1;" vertex="1" parent="1">
          <mxGeometry x="600" y="-170" width="30" height="60" as="geometry" />
        </mxCell>
        <mxCell id="T3eqJL2sRI7vrFtihC8I-64" style="edgeStyle=orthogonalEdgeStyle;rounded=0;orthogonalLoop=1;jettySize=auto;html=1;exitX=1;exitY=0.3333333333333333;exitDx=0;exitDy=0;exitPerimeter=0;entryX=0;entryY=0.5;entryDx=0;entryDy=0;" edge="1" parent="1" source="T3eqJL2sRI7vrFtihC8I-55" target="T3eqJL2sRI7vrFtihC8I-57">
          <mxGeometry relative="1" as="geometry" />
        </mxCell>
        <mxCell id="T3eqJL2sRI7vrFtihC8I-71" style="edgeStyle=orthogonalEdgeStyle;rounded=0;orthogonalLoop=1;jettySize=auto;html=1;exitX=1;exitY=0.3333333333333333;exitDx=0;exitDy=0;exitPerimeter=0;entryX=0.5;entryY=1;entryDx=0;entryDy=0;" edge="1" parent="1" source="T3eqJL2sRI7vrFtihC8I-55" target="T3eqJL2sRI7vrFtihC8I-70">
          <mxGeometry relative="1" as="geometry" />
        </mxCell>
        <mxCell id="T3eqJL2sRI7vrFtihC8I-55" value="atendente" style="shape=umlActor;verticalLabelPosition=bottom;verticalAlign=top;html=1;" vertex="1" parent="1">
          <mxGeometry x="600" y="-370" width="30" height="60" as="geometry" />
        </mxCell>
        <mxCell id="T3eqJL2sRI7vrFtihC8I-56" value="registrar produto" style="ellipse;whiteSpace=wrap;html=1;" vertex="1" parent="1">
          <mxGeometry x="730" y="-170" width="140" height="70" as="geometry" />
        </mxCell>
        <mxCell id="T3eqJL2sRI7vrFtihC8I-62" style="edgeStyle=orthogonalEdgeStyle;rounded=0;orthogonalLoop=1;jettySize=auto;html=1;exitX=1;exitY=0.5;exitDx=0;exitDy=0;entryX=0;entryY=0.5;entryDx=0;entryDy=0;" edge="1" parent="1" source="T3eqJL2sRI7vrFtihC8I-57" target="T3eqJL2sRI7vrFtihC8I-59">
          <mxGeometry relative="1" as="geometry" />
        </mxCell>
        <mxCell id="T3eqJL2sRI7vrFtihC8I-63" style="edgeStyle=orthogonalEdgeStyle;rounded=0;orthogonalLoop=1;jettySize=auto;html=1;exitX=1;exitY=0.5;exitDx=0;exitDy=0;entryX=0;entryY=0.5;entryDx=0;entryDy=0;" edge="1" parent="1" source="T3eqJL2sRI7vrFtihC8I-57" target="T3eqJL2sRI7vrFtihC8I-58">
          <mxGeometry relative="1" as="geometry" />
        </mxCell>
        <mxCell id="T3eqJL2sRI7vrFtihC8I-73" style="edgeStyle=orthogonalEdgeStyle;rounded=0;orthogonalLoop=1;jettySize=auto;html=1;exitX=0.5;exitY=1;exitDx=0;exitDy=0;entryX=0.5;entryY=0;entryDx=0;entryDy=0;" edge="1" parent="1" source="T3eqJL2sRI7vrFtihC8I-57" target="T3eqJL2sRI7vrFtihC8I-72">
          <mxGeometry relative="1" as="geometry" />
        </mxCell>
        <mxCell id="T3eqJL2sRI7vrFtihC8I-57" value="vender" style="ellipse;whiteSpace=wrap;html=1;" vertex="1" parent="1">
          <mxGeometry x="730" y="-370" width="140" height="70" as="geometry" />
        </mxCell>
        <mxCell id="T3eqJL2sRI7vrFtihC8I-77" style="edgeStyle=orthogonalEdgeStyle;rounded=0;orthogonalLoop=1;jettySize=auto;html=1;exitX=1;exitY=0.5;exitDx=0;exitDy=0;entryX=0;entryY=0.5;entryDx=0;entryDy=0;" edge="1" parent="1" source="T3eqJL2sRI7vrFtihC8I-58" target="T3eqJL2sRI7vrFtihC8I-76">
          <mxGeometry relative="1" as="geometry" />
        </mxCell>
        <mxCell id="T3eqJL2sRI7vrFtihC8I-58" value="gerar nota fiscal" style="ellipse;whiteSpace=wrap;html=1;" vertex="1" parent="1">
          <mxGeometry x="910" y="-370" width="140" height="70" as="geometry" />
        </mxCell>
        <mxCell id="T3eqJL2sRI7vrFtihC8I-59" value="registrar cartÃ£o de crÃ©dito/dÃ©bito" style="ellipse;whiteSpace=wrap;html=1;" vertex="1" parent="1">
          <mxGeometry x="910" y="-480" width="140" height="70" as="geometry" />
        </mxCell>
        <mxCell id="T3eqJL2sRI7vrFtihC8I-68" style="edgeStyle=orthogonalEdgeStyle;rounded=0;orthogonalLoop=1;jettySize=auto;html=1;exitX=0.5;exitY=1;exitDx=0;exitDy=0;entryX=0.5;entryY=0;entryDx=0;entryDy=0;" edge="1" parent="1" source="T3eqJL2sRI7vrFtihC8I-67" target="T3eqJL2sRI7vrFtihC8I-57">
          <mxGeometry relative="1" as="geometry" />
        </mxCell>
        <mxCell id="T3eqJL2sRI7vrFtihC8I-80" style="edgeStyle=orthogonalEdgeStyle;rounded=0;orthogonalLoop=1;jettySize=auto;html=1;exitX=0.5;exitY=0;exitDx=0;exitDy=0;entryX=0.5;entryY=1;entryDx=0;entryDy=0;" edge="1" parent="1" source="T3eqJL2sRI7vrFtihC8I-67" target="T3eqJL2sRI7vrFtihC8I-79">
          <mxGeometry relative="1" as="geometry" />
        </mxCell>
        <mxCell id="T3eqJL2sRI7vrFtihC8I-67" value="verificar estoque" style="ellipse;whiteSpace=wrap;html=1;" vertex="1" parent="1">
          <mxGeometry x="730" y="-480" width="140" height="70" as="geometry" />
        </mxCell>
        <mxCell id="T3eqJL2sRI7vrFtihC8I-70" value="cadastrar cliente" style="ellipse;whiteSpace=wrap;html=1;" vertex="1" parent="1">
          <mxGeometry x="550" y="-480" width="140" height="70" as="geometry" />
        </mxCell>
        <mxCell id="T3eqJL2sRI7vrFtihC8I-75" style="edgeStyle=orthogonalEdgeStyle;rounded=0;orthogonalLoop=1;jettySize=auto;html=1;exitX=1;exitY=0.5;exitDx=0;exitDy=0;entryX=0;entryY=0.5;entryDx=0;entryDy=0;" edge="1" parent="1" source="T3eqJL2sRI7vrFtihC8I-72" target="T3eqJL2sRI7vrFtihC8I-74">
          <mxGeometry relative="1" as="geometry" />
        </mxCell>
        <mxCell id="T3eqJL2sRI7vrFtihC8I-72" value="verificar receita" style="ellipse;whiteSpace=wrap;html=1;" vertex="1" parent="1">
          <mxGeometry x="730" y="-280" width="140" height="70" as="geometry" />
        </mxCell>
        <mxCell id="T3eqJL2sRI7vrFtihC8I-74" value="registrar cliente paciente" style="ellipse;whiteSpace=wrap;html=1;" vertex="1" parent="1">
          <mxGeometry x="910" y="-280" width="140" height="70" as="geometry" />
        </mxCell>
        <mxCell id="T3eqJL2sRI7vrFtihC8I-76" value="gerar relatÃ³rio de vendas" style="ellipse;whiteSpace=wrap;html=1;" vertex="1" parent="1">
          <mxGeometry x="1090" y="-370" width="140" height="70" as="geometry" />
        </mxCell>
        <mxCell id="T3eqJL2sRI7vrFtihC8I-78" style="edgeStyle=orthogonalEdgeStyle;rounded=0;orthogonalLoop=1;jettySize=auto;html=1;exitX=0.5;exitY=1;exitDx=0;exitDy=0;entryX=0.5;entryY=0;entryDx=0;entryDy=0;entryPerimeter=0;" edge="1" parent="1" source="T3eqJL2sRI7vrFtihC8I-76" target="T3eqJL2sRI7vrFtihC8I-54">
          <mxGeometry relative="1" as="geometry">
            <Array as="points">
              <mxPoint x="1160" y="-190" />
              <mxPoint x="615" y="-190" />
            </Array>
          </mxGeometry>
        </mxCell>
        <mxCell id="T3eqJL2sRI7vrFtihC8I-79" value="gerar relatÃ³rio de estoque" style="ellipse;whiteSpace=wrap;html=1;" vertex="1" parent="1">
          <mxGeometry x="730" y="-590" width="140" height="70" as="geometry" />
        </mxCell>
        <mxCell id="T3eqJL2sRI7vrFtihC8I-81" style="edgeStyle=orthogonalEdgeStyle;rounded=0;orthogonalLoop=1;jettySize=auto;html=1;exitX=0;exitY=0.5;exitDx=0;exitDy=0;entryX=0.5;entryY=0;entryDx=0;entryDy=0;entryPerimeter=0;" edge="1" parent="1" source="T3eqJL2sRI7vrFtihC8I-79" target="T3eqJL2sRI7vrFtihC8I-54">
          <mxGeometry relative="1" as="geometry">
            <Array as="points">
              <mxPoint x="530" y="-555" />
              <mxPoint x="530" y="-260" />
              <mxPoint x="615" y="-260" />
            </Array>
          </mxGeometry>
        </mxCell>
      </root>
    </mxGraphModel>
  </diagram>
</mxfile>
